<svg width="74" height="30" viewBox="0 0 74 30" fill="none" xmlns="http://www.w3.org/2000/svg">
<mask id="mask0_47_11" style="mask-type:luminance" maskUnits="userSpaceOnUse" x="0" y="0" width="74" height="31">
<path d="M74 0.100006V30.1H0V0.100006" fill="white"/>
</mask>
<g mask="url(#mask0_47_11)">
<path fill-rule="evenodd" clip-rule="evenodd" d="M14.2 25.2H9.3V20.7C9.3 20.3 9.1 19.9 8.9 19.7C8.6 19.4 8.3 19.3 7.9 19.3C7.5 19.3 7.1 19.5 6.9 19.7C6.6 20 6.5 20.3 6.5 20.7V25.2H1.4C1 25.2 0.6 25.4 0.4 25.6C0.1 25.9 0 26.2 0 26.6C0 27 0.2 27.4 0.4 27.6C0.7 27.9 1 28 1.4 28H14.2C14.6 28 15 27.8 15.2 27.6C15.4 27.4 15.6 27 15.6 26.6C15.6 26.2 15.4 25.8 15.2 25.6C15 25.4 14.6 25.2 14.2 25.2ZM4.5 9.2C4.5 4.6 6.6 3.9 7.8 3.9C9 3.9 11.1 4.6 11.1 9.2V9.6C11.1 14.2 9 14.9 7.8 14.9C6.6 14.9 4.5 14.2 4.5 9.6V9.2ZM7.8 17.7C11.6 17.7 14 14.6 14 9.5V9.2C14 4.1 11.6 1 7.8 1C4 1 1.6 4.2 1.6 9.2V9.6C1.6 14.6 4 17.7 7.8 17.7ZM33.4 10.4H17.8C17.4 10.4 17 10.6 16.8 10.8C16.6 11 16.4 11.4 16.4 11.8C16.4 12.2 16.6 12.6 16.8 12.8C17 13 17.4 13.2 17.8 13.2H33.4C33.8 13.2 34.2 13 34.4 12.8C34.7 12.5 34.8 12.2 34.8 11.8C34.8 11.4 34.6 11 34.4 10.8C34.1 10.6 33.8 10.4 33.4 10.4ZM31.8 25.9C24.7 27.7 22.4 26.7 21.7 26.2C21.2 25.8 21.1 25.4 21.1 24.7V23.8H31.3C32.1 23.8 32.8 23.2 32.8 22.3V17.2C32.8 16.4 32.1 15.8 31.3 15.8H19.6C19.2 15.8 18.8 16 18.6 16.2C18.3 16.5 18.2 16.8 18.2 17.2C18.2 17.6 18.4 18 18.6 18.2C18.9 18.5 19.2 18.6 19.6 18.6H29.8V20.8H19.6C18.8 20.8 18.2 21.4 18.2 22.2V24.5C18.2 25.2 18.3 25.9 18.6 26.6C18.9 27.3 19.4 27.8 19.9 28.3C21.1 29.2 22.8 29.7 25.1 29.7C27.1 29.7 29.6 29.3 32.5 28.6C32.7 28.6 32.9 28.5 33 28.4C33.2 28.3 33.3 28.1 33.4 28C33.5 27.8 33.6 27.7 33.6 27.5C33.6 27.3 33.6 27.1 33.6 26.9C33.6 26.7 33.5 26.5 33.4 26.4C33.3 26.2 33.1 26.1 33 26C32.8 25.9 32.7 25.8 32.5 25.8C32.2 25.8 32 25.9 31.8 25.9ZM20.3 7.9H31.1C31.5 7.9 31.9 7.7 32.1 7.5C32.4 7.2 32.5 6.9 32.5 6.5C32.5 6.1 32.3 5.7 32.1 5.5C31.8 5.2 31.5 5.1 31.1 5.1H21.7V1.5C21.7 1.3 21.7 1.1 21.6 0.9C21.5 0.7 21.4 0.6 21.3 0.4C21.2 0.3 21 0.2 20.8 0.1C20.7 0.1 20.5 0 20.3 0C20.1 0 19.9 0 19.7 0.1C19.5 0.2 19.4 0.3 19.2 0.4C19.1 0.6 19 0.8 19 0.9C18.9 1.1 18.9 1.3 18.9 1.5V6.4C18.9 7.2 19.5 7.9 20.3 7.9Z" fill="black"/>
</g>
<mask id="mask1_47_11" style="mask-type:luminance" maskUnits="userSpaceOnUse" x="0" y="0" width="74" height="31">
<path d="M74 0.100006V30.1H0V0.100006" fill="white"/>
</mask>
<g mask="url(#mask1_47_11)">
<path d="M73 1.60001C73 0.800006 72.3 0.100006 71.5 0.100006C70.7 0.100006 70 0.700006 70 1.60001V13.6C70 14.4 70.7 15.1 71.5 15.1C72.3 15.1 73 14.4 73 13.6V1.60001Z" fill="black"/>
</g>
<mask id="mask2_47_11" style="mask-type:luminance" maskUnits="userSpaceOnUse" x="0" y="0" width="74" height="31">
<path d="M74 0.100006V30.1H0V0.100006" fill="white"/>
</mask>
<g mask="url(#mask2_47_11)">
<path fill-rule="evenodd" clip-rule="evenodd" d="M64.5 13.3C64.6 13.7 64.9 14 65.3 14.1C65.6 14.3 66 14.3 66.4 14.1C66.8 14 67.1 13.7 67.2 13.3C67.4 13 67.4 12.6 67.2 12.2C67.1 12.1 66.2 9.5 63.8 7.7L67.5 3.6C67.7 3.4 67.8 3.1 67.9 2.9C67.9 2.6 67.9 2.3 67.8 2.1C67.7 1.8 67.5 1.6 67.3 1.5C67.1 1.3 66.8 1.3 66.5 1.3H57.5C57.1 1.3 56.7 1.5 56.5 1.7C56.1 2 56 2.4 56 2.8C56 3.2 56.2 3.6 56.4 3.8C56.7 4.1 57 4.2 57.4 4.2H63.2L56.3 11.8C56 12.1 55.9 12.5 55.9 12.8C55.9 13.2 56.1 13.5 56.4 13.8C56.7 14.1 57.1 14.2 57.4 14.2C57.7 14.2 58.1 14 58.4 13.7L61.8 9.9C63 10.9 63.9 12 64.5 13.3ZM69.6 26.6H62.6C62.5 26.6 62.4 26.6 62.3 26.5C62.2 26.5 62.1 26.4 62 26.3C61.9 26.2 61.9 26.1 61.8 26C61.8 25.9 61.7 25.8 61.7 25.7V23.7H70.3V25.7C70.4 26.2 70 26.6 69.6 26.6ZM71.8 17.2C71 17.2 70.3 17.8 70.3 18.7V20.9H61.7V18.7C61.7 18.3 61.5 17.9 61.3 17.7C61.1 17.5 60.7 17.3 60.3 17.3C59.9 17.3 59.5 17.5 59.3 17.7C59 18 58.9 18.3 58.9 18.7V25.8C58.9 26.8 59.3 27.7 60 28.4C60.7 29.1 61.6 29.5 62.6 29.5H69.6C70.6 29.5 71.5 29.1 72.2 28.4C72.9 27.7 73.3 26.8 73.3 25.8V18.7C73.3 17.9 72.6 17.2 71.8 17.2Z" fill="black"/>
</g>
<path d="M38.9 25.8C38.6 25.8 38.2 25.7 37.9 25.7C37.6 25.7 37.4 25.6 37.1 25.5C36.8 25.4 36.6 25.2 36.4 25C36.2 24.8 36.1 24.6 36 24.4C35.9 24.2 35.8 24 35.8 23.8C35.7 23.1 35.6 22.4 35.6 21.7C35.6 21 35.6 20.3 35.6 19.6V17C35.6 16.1 35.6 15.2 35.6 14.5C35.6 13.7 35.6 12.9 35.6 12.1C35.6 11.2 35.6 10.4 35.6 9.60001C35.6 8.80001 35.6 8.10001 35.6 7.40001C35.6 6.80001 35.6 6.40001 35.6 6.20001C35.6 5.80001 35.7 5.30001 35.8 4.90001C36 4.40001 36.3 4.10001 36.7 3.90001C36.9 3.80001 37.1 3.80001 37.3 3.70001C37.5 3.60001 37.7 3.70001 37.9 3.70001C38.1 3.80001 38.3 3.90001 38.5 4.00001C38.7 4.20001 38.8 4.40001 38.9 4.70001C39 5.00001 39.1 5.30001 39.1 5.60001C39.2 5.90001 39.2 6.20001 39.2 6.60001C39.2 6.80001 39.2 7.10001 39.2 7.60001C39.2 8.10001 39.2 8.40001 39.2 8.60001C39.2 9.10001 39.2 9.60001 39.2 10.2C39.2 10.9 39.2 11.6 39.2 12.3C39.2 13.1 39.2 13.9 39.2 14.7C39.2 15.5 39.2 16.3 39.2 17C39.2 17.8 39.2 18.5 39.2 19.1C39.2 19.8 39.2 20.3 39.2 20.8C39.2 20.9 39.2 21.1 39.2 21.2C39.3 21.4 39.3 21.4 39.4 21.5C39.5 21.6 39.7 21.7 39.8 21.7C40.3 21.7 40.9 21.8 41.4 21.8C41.6 21.8 41.8 21.8 42 21.8C43.4 21.8 45.1 21.4 45.1 23.7C45.1 23.8 45.1 23.9 45.1 24C45 25.2 43.9 25.5 43 25.6C42.3 25.6 41.7 25.8 41.1 25.8C40.8 25.8 40.6 25.8 40.3 25.8C40.1 25.8 40 25.8 39.9 25.8C39.6 25.9 39.2 25.9 38.9 25.8ZM53.9 24.2C53.9 24.7 53.9 25.3 53.8 25.9C53.7 26.5 53.5 26.9 53.2 27.3C52.9 27.5 52.6 27.6 52.3 27.6C52 27.6 51.8 27.4 51.6 27.2C51.4 26.9 51.3 26.7 51.2 26.3C51.1 25.9 51 25.6 51 25.1C51 24.7 51 24.4 51 24.1V16.4H49V24.3C49.1 24.8 49.1 25.2 49 25.8C48.9 26.3 48.8 26.7 48.7 27C48.5 27.4 48.2 27.5 47.8 27.5C47.6 27.5 47.4 27.4 47.2 27.3C47 27.2 46.9 27.1 46.7 26.9C46.4 26.6 46.2 26.2 46.1 25.6C46 25.1 46 24.6 46 24.1V5.00001C46 4.40001 46.1 3.90001 46.2 3.40001C46.4 2.90001 46.8 2.70001 47.3 2.60001C47.7 2.60001 48.1 2.70001 48.3 3.00001C48.5 3.30001 48.7 3.60001 48.8 4.00001C48.9 4.50001 49 5.00001 49 5.40001C49 5.90001 49 6.20001 49 6.50001V12.6H50.9V6.30001C50.9 6.00001 50.9 5.70001 50.9 5.30001C50.9 4.90001 50.9 4.50001 51 4.10001C51.1 3.80001 51.2 3.50001 51.4 3.20001C51.6 2.90001 51.9 2.80001 52.3 2.70001C52.5 2.70001 52.7 2.70001 52.8 2.80001C53 2.90001 53.1 3.00001 53.3 3.20001C53.5 3.50001 53.7 3.70001 53.7 4.10001C53.8 4.50001 53.9 4.90001 53.9 5.40001C54 5.90001 54 6.30001 54 6.70001C54 7.10001 54 7.50001 54 7.90001V24.2H53.9Z" fill="black"/>
</svg>
