<svg width="24" height="24" viewBox="0 0 24 24" fill="none" xmlns="http://www.w3.org/2000/svg">
<path d="M12 23C18.0751 23 23 18.0751 23 12C23 5.92487 18.0751 1 12 1C5.92487 1 1 5.92487 1 12C1 18.0751 5.92487 23 12 23Z" fill="rgb(101, 110, 117)"/>
<path d="M9.10056 5.04896C8.35575 5.0841 7.84714 5.20296 7.40249 5.37768C6.94231 5.55702 6.55226 5.79768 6.16418 6.18717C5.7761 6.57665 5.53711 6.96698 5.35903 7.42786C5.18669 7.87349 5.06993 8.38253 5.03703 9.12776C5.00413 9.87299 4.99685 10.1125 5.00049 12.0135C5.00413 13.9144 5.01253 14.1527 5.04865 14.8995C5.08421 15.6441 5.20265 16.1526 5.37737 16.5974C5.55699 17.0576 5.79738 17.4475 6.187 17.8357C6.57662 18.2239 6.96667 18.4624 7.42867 18.6407C7.87388 18.8128 8.38306 18.9301 9.12815 18.9627C9.87324 18.9953 10.1131 19.0029 12.0135 18.9993C13.9139 18.9956 14.1531 18.9872 14.8997 18.9518C15.6464 18.9164 16.1522 18.7971 16.5971 18.6232C17.0573 18.4432 17.4475 18.2032 17.8354 17.8134C18.2234 17.4237 18.4622 17.0331 18.6402 16.5719C18.8126 16.1267 18.9298 15.6175 18.9622 14.873C18.9948 14.1258 19.0025 13.8872 18.9988 11.9866C18.9952 10.0859 18.9867 9.84765 18.9513 9.10116C18.9158 8.35467 18.7972 7.84773 18.6227 7.40266C18.4428 6.94248 18.2027 6.55285 17.8132 6.16435C17.4237 5.77584 17.0328 5.53714 16.5718 5.35962C16.1263 5.18728 15.6174 5.06982 14.8723 5.03762C14.1272 5.00542 13.8874 4.99716 11.9863 5.0008C10.0852 5.00444 9.84719 5.01256 9.10056 5.04896ZM9.18233 17.7034C8.49982 17.6737 8.12924 17.5603 7.88228 17.4654C7.55523 17.3394 7.32227 17.1871 7.07615 16.9433C6.83003 16.6996 6.67882 16.4658 6.55114 16.1394C6.45524 15.8925 6.33974 15.5223 6.30782 14.8398C6.2731 14.1021 6.26582 13.8807 6.26176 12.0118C6.2577 10.1429 6.26484 9.92171 6.29718 9.18376C6.3263 8.50181 6.4404 8.13081 6.53518 7.88399C6.66118 7.55652 6.81295 7.32398 7.05725 7.078C7.30155 6.83201 7.53465 6.68053 7.86128 6.55285C8.10796 6.45653 8.47812 6.34201 9.16035 6.30953C9.89858 6.27453 10.1198 6.26753 11.9884 6.26347C13.857 6.25941 14.0788 6.26641 14.8173 6.29889C15.4992 6.32857 15.8704 6.44155 16.1169 6.53689C16.4441 6.66289 16.6769 6.81423 16.9229 7.05896C17.1689 7.30368 17.3205 7.53594 17.4482 7.86327C17.5447 8.10925 17.6592 8.47927 17.6914 9.16192C17.7265 9.90015 17.7345 10.1215 17.7379 11.9899C17.7412 13.8584 17.7346 14.0803 17.7023 14.818C17.6725 15.5005 17.5594 15.8712 17.4643 16.1184C17.3383 16.4454 17.1864 16.6785 16.9419 16.9243C16.6975 17.1701 16.4647 17.3216 16.1379 17.4493C15.8915 17.5455 15.5209 17.6603 14.8393 17.6928C14.101 17.7275 13.8798 17.7348 12.0105 17.7388C10.1412 17.7429 9.92056 17.7353 9.18233 17.7034ZM14.889 8.25877C14.8898 8.72273 15.2664 9.09822 15.7304 9.09738C16.1943 9.09654 16.5698 8.71993 16.569 8.25597C16.5681 7.792 16.1915 7.41652 15.7276 7.41736C15.2638 7.41834 14.8881 7.79494 14.889 8.25877ZM8.40546 12.007C8.40938 13.9922 10.0217 15.5979 12.0065 15.5941C13.9913 15.5904 15.5981 13.9782 15.5943 11.993C15.5905 10.0078 13.9778 8.40171 11.9928 8.40563C10.0077 8.40955 8.40168 10.0221 8.40546 12.007ZM9.66631 12.0045C9.66379 10.7158 10.7064 9.669 11.9951 9.66648C13.2839 9.66396 14.3306 10.7066 14.3332 11.9953C14.3357 13.284 13.2931 14.3308 12.0044 14.3333C10.7158 14.336 9.66897 13.293 9.66631 12.0045Z" fill="white"/>
</svg>
