<svg width="24" height="24" viewBox="0 0 24 24" fill="none" xmlns="http://www.w3.org/2000/svg">
<path d="M12 23C18.0751 23 23 18.0751 23 12C23 5.92487 18.0751 1 12 1C5.92487 1 1 5.92487 1 12C1 18.0751 5.92487 23 12 23Z" fill="rgb(101, 110, 117)"/>
<path d="M14.6548 6.5H9.34613C8.98949 6.5 8.70032 6.77492 8.70032 7.11427V12.4991C8.70032 12.8382 8.98949 13.1132 9.34613 13.1132H11.7936C11.7768 13.7122 11.5225 14.3691 11.1359 14.9432C10.7632 15.4965 10.1507 16.0415 9.81834 16.3021C9.80979 16.3089 9.80132 16.3154 9.79333 16.3217C9.72163 16.3871 9.66935 16.4632 9.66822 16.5686C9.6671 16.6486 9.71071 16.7105 9.75924 16.7761L9.77169 16.7896L11.4662 18.6074C11.4662 18.6074 11.549 18.6908 11.6175 18.7066C11.6948 18.7243 11.7823 18.7265 11.8429 18.6818C14.7987 16.5067 15.2256 13.7794 15.2999 12.3034C15.3001 12.295 15.3004 7.11427 15.3004 7.11427C15.3004 6.77492 15.0114 6.5 14.6548 6.5Z" fill="white"/>
</svg>
