<svg width="24" height="24" viewBox="0 0 24 24" fill="none" xmlns="http://www.w3.org/2000/svg">
<path d="M12 23C18.0751 23 23 18.0751 23 12C23 5.92487 18.0751 1 12 1C5.92487 1 1 5.92487 1 12C1 18.0751 5.92487 23 12 23Z" fill="rgb(101, 110, 117)"/>
<path d="M7.96631 5.76685H16.033V13.8335H7.96631V5.76685ZM12.5913 8.24889V9.81433L11.4126 8.24889H10.1381V11.3515H11.4082V9.78601L12.5872 11.3515H13.8612V8.24889H12.5913Z" fill="white"/>
<path d="M7.96631 14.454H16.033L14.5204 16.3156H9.47869L7.96631 14.454Z" fill="white"/>
<path d="M9.98279 16.9361H14.0161L11.9993 19.4181L9.98279 16.9361Z" fill="white"/>
</svg>
