<svg width="30" height="24" viewBox="0 0 30 24" fill="none" xmlns="http://www.w3.org/2000/svg">
<path d="M6.25 1.97916H23.75C24.0815 1.97916 24.3995 2.08342 24.6339 2.269C24.8683 2.45458 25 2.70629 25 2.96874V21.9123C25.0001 22.0008 24.9703 22.0877 24.9136 22.1639C24.8569 22.2402 24.7755 22.303 24.6777 22.3458C24.5799 22.3887 24.4694 22.41 24.3577 22.4076C24.246 22.4051 24.1371 22.379 24.0425 22.3319L15 17.8422L5.9575 22.3309C5.86296 22.3779 5.75423 22.4041 5.64263 22.4066C5.53102 22.409 5.42061 22.3878 5.32287 22.3451C5.22513 22.3024 5.14363 22.2397 5.08685 22.1636C5.03007 22.0875 5.00008 22.0007 5 21.9123V2.96874C5 2.70629 5.1317 2.45458 5.36612 2.269C5.60054 2.08342 5.91848 1.97916 6.25 1.97916ZM22.5 3.95832H7.5V19.2296L15 15.5077L22.5 19.2296V3.95832Z" fill="#2F3438"/>
</svg>